<svg xmlns="http://www.w3.org/2000/svg" fill="#FF00BF" viewBox="3 7.07 26 17.56"><path d="M23.596 7.073v8.57c0 2.71 1.93 4.64 4.64 4.64H29v-3.087h-.233c-1.044 0-1.556-.513-1.556-1.557v-.934H29v-3.087h-1.79V7.073h-3.614Zm-.815 7.632h-1.79v5.579h-3.614v-8.667c0-2.579 1.93-4.544 4.64-4.544h.764v3.088h-.233c-1.009 0-1.522.487-1.557 1.456h1.79v3.087ZM11.219 16.49v-4.873H7.605v5.57c0 1.965 1.22 3.276 3.062 3.276 1.11 0 2.035-.465 2.307-1.132 0 1.347-.944 2.215-2.36 2.215a4.357 4.357 0 0 1-1.982-.495v3.11c.74.32 1.627.473 2.657.473 3.167 0 5.097-1.978 5.097-5.202v-7.815h-3.614v4.873c0 .513-.316.886-.776.886s-.776-.373-.776-.886Zm-3.75 3.47c-.644-.724-.855-1.404-.855-2.772V7.073H3v10.83c0 1.565 1.022 2.556 2.645 2.556.68 0 1.312-.193 1.824-.5Z"/></svg>