<?xml version="1.0" encoding="UTF-8" standalone="no"?>
<svg
   class="LogoLockup svelte-1qhoav6"
   aria-hidden="true"
   viewBox="0 0 18035 4538.2242"
   width="400"
   height="100.2721"
   version="1.1"
   style="text-align:center;inline-size:88px"
   id="svg4"
   sodipodi:docname="Square Logo 08.2022.svg"
   inkscape:version="1.1.1 (3bf5ae0d25, 2021-09-20)"
   xmlns:inkscape="http://www.inkscape.org/namespaces/inkscape"
   xmlns:sodipodi="http://sodipodi.sourceforge.net/DTD/sodipodi-0.dtd"
   xmlns="http://www.w3.org/2000/svg"
   xmlns:svg="http://www.w3.org/2000/svg">
  <defs
     id="defs8" />
  <sodipodi:namedview
     id="namedview6"
     pagecolor="#ffffff"
     bordercolor="#111111"
     borderopacity="1"
     inkscape:pageshadow="0"
     inkscape:pageopacity="0"
     inkscape:pagecheckerboard="1"
     showgrid="false"
     inkscape:zoom="1.5028409"
     inkscape:cx="26.283554"
     inkscape:cy="137.40643"
     inkscape:window-width="1600"
     inkscape:window-height="829"
     inkscape:window-x="-8"
     inkscape:window-y="-8"
     inkscape:window-maximized="1"
     inkscape:current-layer="svg4" />
  <path
     d="M 3772.3263,0 H 750.79795 C 331.92706,0 -7.55,339.47706 -7.55,758.34795 V 3779.8763 c 0,418.8709 339.47706,758.348 758.34795,758.348 H 3772.3263 c 418.8709,0 758.348,-339.4771 758.348,-758.348 V 758.34795 C 4530.6743,339.47706 4191.1972,0 3772.3263,0 Z m -66.6178,3473.7082 c 0,132.323 -107.2273,239.5503 -239.5503,239.5503 H 1056.9661 c -132.32304,0 -239.55034,-107.2273 -239.55034,-239.5503 V 1064.5161 c 0,-132.32304 107.2273,-239.55034 239.55034,-239.55034 h 2409.1921 c 132.323,0 239.5503,107.2273 239.5503,239.55034 z M 1780.18,2885.0987 c -76.1998,0 -137.3422,-61.5986 -137.3422,-137.7984 v -961.8517 c 0,-76.1998 61.1424,-138.2548 137.3422,-138.2548 h 963.2206 c 75.7435,0 137.3422,61.5987 137.3422,138.2548 v 961.3954 c 0,76.1998 -61.5987,137.7985 -137.3422,137.7985 H 1780.18 Z m 3953.7214,-65.7052 h 495.5271 c 24.6394,280.6161 214.9108,499.6336 598.6477,499.6336 342.671,0 553.4753,-169.2823 553.4753,-425.2589 0,-239.5504 -165.1756,-346.7777 -462.6743,-417.0458 l -384.1932,-82.5878 c -417.0457,-90.801 -730.9707,-359.0974 -730.9707,-797.1323 0,-483.2073 429.3654,-813.5586 986.9474,-813.5586 590.4346,0 970.5211,309.8185 1003.3737,767.93 h -479.1007 c -57.0358,-214.4546 -234.9874,-342.2148 -523.8167,-342.2148 -305.7119,0 -516.0599,165.1757 -516.0599,375.98 0,210.8043 181.602,338.5645 495.527,408.8326 l 380.0865,82.5878 c 417.0458,90.801 701.7685,342.6711 701.7685,784.3563 0,561.6885 -421.1523,896.1464 -1023.9066,896.1464 -677.5853,-0.4563 -1053.109,-367.7668 -1094.6311,-937.6685 z m 3891.2103,1718.8308 v -821.7718 l 32.3963,-360.4662 h -32.3963 c -113.6154,259.1706 -352.2531,401.0757 -676.2165,401.0757 -522.4479,0 -911.2038,-425.2589 -911.2038,-1077.2921 0,-652.0333 388.7559,-1077.2922 911.2038,-1077.2922 319.8568,0 546.6311,149.662 676.2165,384.6495 h 32.3963 v -344.4963 h 429.365 v 2895.5934 z m 15.97,-1858.9107 c 0,-417.0458 -255.0641,-660.2464 -567.164,-660.2464 -312.0999,0 -567.164,243.2006 -567.164,660.2464 0,417.0457 255.0641,660.2464 567.164,660.2464 312.0999,0 567.164,-242.7444 567.164,-660.2464 z m 788.4633,214.9109 V 1642.6309 h 461.761 V 2853.615 c 0,328.0699 157.875,485.945 421.153,485.945 323.963,0 534.767,-230.8809 534.767,-591.3472 V 1642.6309 h 461.762 v 2073.3653 h -429.365 v -429.3654 h -32.397 c -101.295,275.5969 -323.963,469.9749 -668.003,469.9749 -494.614,0 -749.678,-315.7502 -749.678,-862.3812 z m 2160.516,242.7443 c 0,-388.756 271.49,-615.5303 753.328,-643.8201 l 570.815,-36.5029 v -161.9816 c 0,-194.378 -141.905,-311.6436 -392.863,-311.6436 -230.881,0 -368.679,117.2656 -405.182,283.3538 h -461.762 c 48.823,-421.1523 396.969,-664.3529 866.488,-664.3529 530.661,0 854.624,226.7743 854.624,664.3529 v 1449.6218 h -429.365 v -384.6494 h -32.397 c -97.189,255.0641 -299.78,425.2589 -688.536,425.2589 -371.873,0 -635.15,-250.9575 -635.15,-619.6369 z M 13914.66,2881.9047 V 2772.396 l -465.869,32.3963 c -250.957,15.9701 -364.572,109.5088 -364.572,295.6736 0,157.8751 129.585,271.4904 311.643,271.4904 328.526,0 518.798,-210.348 518.798,-490.0516 z m 805.345,834.5478 V 1642.6309 h 429.366 v 396.9692 h 32.396 c 60.686,-271.4904 267.384,-396.9692 574.921,-396.9692 h 210.804 v 417.0458 h -263.277 c -299.78,0 -522.448,194.378 -522.448,563.0574 v 1093.2621 h -461.762 z m 3360.093,-951.8134 h -1575.557 c 24.183,380.5429 291.567,595.4538 587.241,595.4538 250.957,0 408.832,-101.2956 498.265,-271.4904 h 457.655 c -125.479,421.1523 -494.158,668.0032 -960.027,668.0032 -611.423,0 -1040.789,-457.6552 -1040.789,-1077.2921 0,-619.6369 441.229,-1077.2921 1044.896,-1077.2921 607.317,0 1004.286,417.0457 1004.286,935.387 0.456,101.7519 -7.757,154.2248 -15.97,227.2306 z m -441.229,-319.8567 c -15.97,-287.4604 -255.064,-481.8384 -546.631,-481.8384 -275.597,0 -506.021,174.3014 -563.057,481.8384 z"
     fill="#000000"
     class="svelte-1qhoav6"
     style="d:path('M 828.4 0 H 166.2 C 74.4 0 0 74.4 0 166.2 V 828.4 C 0 920.2 74.4 994.6 166.2 994.6 H 828.4 C 920.2 994.6 994.6 920.2 994.6 828.4 V 166.2 C 994.6 74.4 920.2 0 828.4 0 Z M 813.8 761.3 C 813.8 790.3 790.3 813.8 761.3 813.8 H 233.3 C 204.3 813.8 180.8 790.3 180.8 761.3 V 233.3 C 180.8 204.3 204.3 180.8 233.3 180.8 H 761.3 C 790.3 180.8 813.8 204.3 813.8 233.3 V 761.3 Z M 391.8 632.3 C 375.1 632.3 361.7 618.8 361.7 602.1 V 391.3 C 361.7 374.6 375.1 361 391.8 361 H 602.9 C 619.5 361 633 374.5 633 391.3 V 602 C 633 618.7 619.5 632.2 602.9 632.2 H 391.8 Z M 1258.3 617.9 H 1366.9 C 1372.3 679.4 1414 727.4 1498.1 727.4 C 1573.2 727.4 1619.4 690.3 1619.4 634.2 C 1619.4 581.7 1583.2 558.2 1518 542.8 L 1433.8 524.7 C 1342.4 504.8 1273.6 446 1273.6 350 C 1273.6 244.1 1367.7 171.7 1489.9 171.7 C 1619.3 171.7 1702.6 239.6 1709.8 340 H 1604.8 C 1592.3 293 1553.3 265 1490 265 C 1423 265 1376.9 301.2 1376.9 347.4 S 1416.7 421.6 1485.5 437 L 1568.8 455.1 C 1660.2 475 1722.6 530.2 1722.6 627 C 1722.6 750.1 1630.3 823.4 1498.2 823.4 C 1349.7 823.3 1267.4 742.8 1258.3 617.9 Z M 2111.1 994.6 V 814.5 L 2118.2 735.5 H 2111.1 C 2086.2 792.3 2033.9 823.4 1962.9 823.4 C 1848.4 823.4 1763.2 730.2 1763.2 587.3 C 1763.2 444.4 1848.4 351.2 1962.9 351.2 C 2033 351.2 2082.7 384 2111.1 435.5 H 2118.2 V 360 H 2212.3 V 994.6 H 2111.1 Z M 2114.6 587.2 C 2114.6 495.8 2058.7 442.5 1990.3 442.5 S 1866 495.8 1866 587.2 C 1866 678.6 1921.9 731.9 1990.3 731.9 S 2114.6 678.7 2114.6 587.2 Z M 2287.4 634.3 V 360 H 2388.6 V 625.4 C 2388.6 697.3 2423.2 731.9 2480.9 731.9 C 2551.9 731.9 2598.1 681.3 2598.1 602.3 V 360 H 2699.3 V 814.4 H 2605.2 V 720.3 H 2598.1 C 2575.9 780.7 2527.1 823.3 2451.7 823.3 C 2343.3 823.3 2287.4 754.1 2287.4 634.3 Z M 2760.9 687.5 C 2760.9 602.3 2820.4 552.6 2926 546.4 L 3051.1 538.4 V 502.9 C 3051.1 460.3 3020 434.6 2965 434.6 C 2914.4 434.6 2884.2 460.3 2876.2 496.7 H 2775 C 2785.7 404.4 2862 351.1 2964.9 351.1 C 3081.2 351.1 3152.2 400.8 3152.2 496.7 V 814.4 H 3058.1 V 730.1 H 3051 C 3029.7 786 2985.3 823.3 2900.1 823.3 C 2818.6 823.3 2760.9 768.3 2760.9 687.5 Z M 3051.2 631.6 V 607.6 L 2949.1 614.7 C 2894.1 618.2 2869.2 638.7 2869.2 679.5 C 2869.2 714.1 2897.6 739 2937.5 739 C 3009.5 739 3051.2 692.9 3051.2 631.6 Z M 3227.7 814.5 V 360 H 3321.8 V 447 H 3328.9 C 3342.2 387.5 3387.5 360 3454.9 360 H 3501.1 V 451.4 H 3443.4 C 3377.7 451.4 3328.9 494 3328.9 574.8 V 814.4 H 3227.7 Z M 3964.1 605.9 H 3618.8 C 3624.1 689.3 3682.7 736.4 3747.5 736.4 C 3802.5 736.4 3837.1 714.2 3856.7 676.9 H 3957 C 3929.5 769.2 3848.7 823.3 3746.6 823.3 C 3612.6 823.3 3518.5 723 3518.5 587.2 C 3518.5 451.4 3615.2 351.1 3747.5 351.1 C 3880.6 351.1 3967.6 442.5 3967.6 556.1 C 3967.7 578.4 3965.9 589.9 3964.1 605.9 Z M 3867.4 535.8 C 3863.9 472.8 3811.5 430.2 3747.6 430.2 C 3687.2 430.2 3636.7 468.4 3624.2 535.8 H 3867.4 Z');text-align:center;stroke-width:4.56286"
     id="path2" />
</svg>
