<svg width="301" height="324" viewBox="0 0 301 324" fill="none" xmlns="http://www.w3.org/2000/svg">
<g filter="url(#filter0_d_88_12)">
<path d="M101.246 47.2371C107.62 22.0189 130.289 4.93691 142.712 11.3142C143.033 11.4787 143.346 11.6607 143.652 11.8567L193.049 40.3762C195.416 41.591 197.41 43.6579 198.849 46.6809L199.611 48.5847L205.078 63.8894L221.094 60.9587C224.647 60.3094 227.649 60.6609 230.1 61.8015C230.713 62.0871 231.292 62.4228 231.836 62.804L280.436 90.864C293.301 96.8525 290.973 124.591 273.461 143.428L271.431 145.479L241.485 174.593C234.615 181.267 228.328 189.275 223.048 198.076C217.768 206.877 213.618 216.267 210.879 225.611L209.851 229.369L199.624 269.867C193.25 295.086 170.58 312.168 158.165 305.795C157.844 305.631 157.532 305.449 157.226 305.253L107.828 276.733C105.463 275.519 103.47 273.454 102.033 270.432L101.246 268.542L95.7787 253.212L79.7885 256.138C76.2337 256.789 73.23 256.438 70.7782 255.299L69.0258 254.287L20.4413 226.238C7.569 220.254 9.89798 192.515 27.4211 173.684L29.4517 171.605L59.398 142.505C66.2655 135.83 72.5499 127.823 77.8273 119.024C83.1048 110.224 87.2525 100.836 89.9906 91.4944L91.019 87.7356L101.246 47.2371ZM162.403 54.3665C157.642 60.3962 153.707 67.895 151.583 76.2991L141.356 116.798L140.327 120.556C137.589 129.898 133.442 139.286 128.164 148.086C122.887 156.885 116.602 164.892 109.734 171.567L79.7885 200.666L77.7579 202.746C72.5715 208.32 68.716 214.674 66.1918 221.013C71.0456 221.092 75.473 222.307 79.2972 224.62L128.842 253.225C128.82 253.213 128.799 253.2 128.776 253.188L129.634 253.683C129.837 253.806 130.038 253.931 130.237 254.06L128.173 252.868C128.168 252.866 128.163 252.863 128.158 252.861L130.236 254.06C133.52 256.183 136.286 259.11 138.463 262.742C143.225 256.712 147.162 249.212 149.287 240.805L159.514 200.307L160.542 196.55C163.282 187.205 167.431 177.815 172.711 169.014C177.991 160.213 184.278 152.205 191.148 145.531L221.094 116.417L223.124 114.366C228.308 108.79 232.161 102.434 234.684 96.0925C229.829 96.015 225.4 94.8017 221.575 92.489L172.044 63.8914C171.773 63.7415 171.504 63.587 171.239 63.4265C171.036 63.304 170.835 63.1787 170.636 63.05C167.35 60.9277 164.581 58.0003 162.403 54.3665ZM128.842 253.225C129.109 253.373 129.373 253.525 129.634 253.682L128.842 253.225ZM70.7782 255.299C70.1588 255.011 69.5748 254.672 69.0258 254.287L70.7782 255.299Z" fill="url(#paint0_linear_88_12)"/>
<path d="M156.346 75.428C162.408 51.4449 186.934 36.5697 194.189 51.571L194.869 53.2756L205.088 81.8816C207.668 89.1085 211.836 94.6785 217.312 98.2151C222.788 101.752 229.445 103.172 236.833 102.382L236.901 102.375L236.971 102.365L239.725 101.962L239.791 101.952L239.858 101.94L269.803 96.4597V96.4607C287.54 93.2189 288.161 121.172 271.565 139.135L269.737 140.982L239.859 170.031C232.307 177.367 225.397 186.169 219.593 195.843C213.79 205.517 209.228 215.838 206.217 226.109L206.191 226.2L206.166 226.291L205.138 230.049L205.112 230.145L205.087 230.241L194.86 270.74C188.794 294.737 164.255 309.601 157.024 294.588L156.308 292.87L146.119 264.301C143.541 257.07 139.373 251.497 133.897 247.957C128.421 244.418 121.764 242.994 114.375 243.783L114.309 243.79L114.243 243.8L111.502 244.196L111.432 244.206L111.361 244.219L81.4149 249.698C63.6521 252.949 63.0499 224.958 79.6812 207.008L81.5054 205.138L111.361 176.128L111.362 176.127C118.911 168.79 125.819 159.989 131.62 150.316C137.421 140.644 141.979 130.325 144.989 120.056L145.016 119.966L145.041 119.875L146.069 116.116L146.095 116.02L146.119 115.925L156.346 75.4275L156.346 75.428Z" fill="white" stroke="url(#paint1_linear_88_12)" stroke-width="11.6248"/>
</g>
<defs>
<filter id="filter0_d_88_12" x="0.265625" y="-8" width="302.144" height="334.963" filterUnits="userSpaceOnUse" color-interpolation-filters="sRGB">
<feFlood flood-opacity="0" result="BackgroundImageFix"/>
<feColorMatrix in="SourceAlpha" type="matrix" values="0 0 0 0 0 0 0 0 0 0 0 0 0 0 0 0 0 0 127 0" result="hardAlpha"/>
<feOffset dy="4"/>
<feGaussianBlur stdDeviation="6"/>
<feComposite in2="hardAlpha" operator="out"/>
<feColorMatrix type="matrix" values="0 0 0 0 0 0 0 0 0 0 0 0 0 0 0 0 0 0 0.25 0"/>
<feBlend mode="normal" in2="BackgroundImageFix" result="effect1_dropShadow_88_12"/>
<feBlend mode="normal" in="SourceGraphic" in2="effect1_dropShadow_88_12" result="shape"/>
</filter>
<linearGradient id="paint0_linear_88_12" x1="150.436" y1="-0.99382" x2="288.608" y2="238.326" gradientUnits="userSpaceOnUse">
<stop stop-color="#EC4899"/>
<stop offset="1" stop-color="#007CF1"/>
</linearGradient>
<linearGradient id="paint1_linear_88_12" x1="175.605" y1="42.5981" x2="288.608" y2="238.325" gradientUnits="userSpaceOnUse">
<stop stop-color="#EC4899"/>
<stop offset="1" stop-color="#6003D8"/>
</linearGradient>
</defs>
</svg>
