<svg width="1200" height="630" viewBox="0 0 1200 630" fill="none" xmlns="http://www.w3.org/2000/svg">
  <defs>
    <linearGradient id="bg" x1="180" y1="18" x2="1060" y2="612" gradientUnits="userSpaceOnUse">
      <stop stop-color="#11172B" />
      <stop offset="0.5" stop-color="#0D1021" />
      <stop offset="1" stop-color="#0A0C14" />
    </linearGradient>
    <radialGradient id="glow" cx="0" cy="0" r="1" gradientUnits="userSpaceOnUse" gradientTransform="matrix(0 260 -420 0 600 320)">
      <stop stop-color="#7F5AF0" stop-opacity="0.35" />
      <stop offset="1" stop-color="#0C0D10" stop-opacity="0" />
    </radialGradient>
    <linearGradient id="pinkSheen" x1="120" y1="120" x2="1080" y2="510" gradientUnits="userSpaceOnUse">
      <stop stop-color="#FF2F87" stop-opacity="0.8" />
      <stop offset="1" stop-color="#7F5AF0" stop-opacity="0.35" />
    </linearGradient>
  </defs>

  <rect width="1200" height="630" rx="28" fill="url(#bg)" />
  <rect width="1200" height="630" rx="28" fill="url(#glow)" />
  <rect x="44" y="86" width="1112" height="458" rx="28" fill="#0F1427" stroke="#242B43" stroke-width="1.5" />
  <rect x="62" y="106" width="1076" height="418" rx="22" fill="#0D1323" stroke="#1E2741" />
  <rect x="62" y="106" width="1076" height="418" rx="22" fill="url(#pinkSheen)" opacity="0.08" />

  <text x="100" y="170" fill="#BBD0FF" font-family="Inter, 'Segoe UI', system-ui, -apple-system, sans-serif" font-weight="600" font-size="14" letter-spacing="0.12em" textLength="220">
    COMPONENT STATES
  </text>
  <text x="100" y="212" fill="#F7F7FF" font-family="Inter, 'Segoe UI', system-ui, -apple-system, sans-serif" font-weight="700" font-size="36">
    Spec every state. Ship clarity.
  </text>
  <text x="100" y="246" fill="#C3C8E5" font-family="Inter, 'Segoe UI', system-ui, -apple-system, sans-serif" font-weight="500" font-size="18">
    Buttons, inputs, and alerts that speak in hover, focus, loading, and success.
  </text>

  <!-- Button state cards -->
  <g transform="translate(90 286)">
    <g transform="translate(0 0)">
      <rect width="172" height="110" rx="14" fill="#121A30" stroke="#2E3754" />
      <text x="18" y="34" fill="#9FB4FF" font-family="Inter, 'Segoe UI', system-ui, -apple-system, sans-serif" font-size="13" font-weight="600">Default</text>
      <rect x="18" y="54" width="136" height="36" rx="8" fill="#1E2640" stroke="#3B4566" />
      <text x="46" y="77" fill="#E7ECFF" font-family="Inter, 'Segoe UI', system-ui, -apple-system, sans-serif" font-size="13" font-weight="700">Primary</text>
    </g>
    <g transform="translate(196 0)">
      <rect width="172" height="110" rx="14" fill="#121A30" stroke="#2E3754" />
      <text x="18" y="34" fill="#9FB4FF" font-family="Inter, 'Segoe UI', system-ui, -apple-system, sans-serif" font-size="13" font-weight="600">Hover</text>
      <rect x="18" y="54" width="136" height="36" rx="8" fill="#1E2F53" stroke="#4963B3" />
      <text x="46" y="77" fill="#F9FBFF" font-family="Inter, 'Segoe UI', system-ui, -apple-system, sans-serif" font-size="13" font-weight="700">Primary</text>
      <rect x="18" y="54" width="136" height="36" rx="8" stroke="#FF2F87" stroke-width="2" opacity="0.25" />
    </g>
    <g transform="translate(392 0)">
      <rect width="172" height="110" rx="14" fill="#121A30" stroke="#2E3754" />
      <text x="18" y="34" fill="#9FB4FF" font-family="Inter, 'Segoe UI', system-ui, -apple-system, sans-serif" font-size="13" font-weight="600">Active</text>
      <rect x="18" y="54" width="136" height="36" rx="8" fill="#19223C" stroke="#2C3757" />
      <rect x="22" y="58" width="128" height="28" rx="6" fill="#10172B" />
      <text x="46" y="77" fill="#C5D3FF" font-family="Inter, 'Segoe UI', system-ui, -apple-system, sans-serif" font-size="13" font-weight="700">Pressed</text>
    </g>
    <g transform="translate(588 0)">
      <rect width="172" height="110" rx="14" fill="#121A30" stroke="#2E3754" />
      <text x="18" y="34" fill="#9FB4FF" font-family="Inter, 'Segoe UI', system-ui, -apple-system, sans-serif" font-size="13" font-weight="600">Focus</text>
      <rect x="18" y="54" width="136" height="36" rx="8" fill="#1E2640" stroke="#3B4566" />
      <rect x="12" y="48" width="148" height="48" rx="10" stroke="#7F5AF0" stroke-width="2" stroke-dasharray="6 6" />
      <text x="46" y="77" fill="#F9FBFF" font-family="Inter, 'Segoe UI', system-ui, -apple-system, sans-serif" font-size="13" font-weight="700">Ready</text>
    </g>
    <g transform="translate(784 0)">
      <rect width="172" height="110" rx="14" fill="#121A30" stroke="#2E3754" />
      <text x="18" y="34" fill="#9FB4FF" font-family="Inter, 'Segoe UI', system-ui, -apple-system, sans-serif" font-size="13" font-weight="600">Disabled</text>
      <rect x="18" y="54" width="136" height="36" rx="8" fill="#0F1427" stroke="#1F263D" />
      <text x="42" y="77" fill="#5A6485" font-family="Inter, 'Segoe UI', system-ui, -apple-system, sans-serif" font-size="13" font-weight="700">Unavailable</text>
    </g>
  </g>

  <!-- Secondary row -->
  <g transform="translate(180 422)">
    <g transform="translate(0 0)">
      <rect width="220" height="120" rx="16" fill="#121A30" stroke="#2E3754" />
      <text x="18" y="32" fill="#9FB4FF" font-family="Inter, 'Segoe UI', system-ui, -apple-system, sans-serif" font-size="13" font-weight="600">Loading state</text>
      <rect x="18" y="52" width="184" height="44" rx="10" fill="#1D2642" stroke="#3C4668" />
      <circle cx="48" cy="74" r="12" stroke="#FF2F87" stroke-width="3" stroke-dasharray="16 12" />
      <text x="76" y="79" fill="#E7ECFF" font-family="Inter, 'Segoe UI', system-ui, -apple-system, sans-serif" font-size="13" font-weight="700">Submitting...</text>
    </g>
    <g transform="translate(252 0)">
      <rect width="220" height="120" rx="16" fill="#121A30" stroke="#2E3754" />
      <text x="18" y="32" fill="#9FB4FF" font-family="Inter, 'Segoe UI', system-ui, -apple-system, sans-serif" font-size="13" font-weight="600">Input focus</text>
      <rect x="18" y="52" width="184" height="44" rx="10" fill="#0F1427" stroke="#7F5AF0" stroke-width="2" />
      <text x="28" y="78" fill="#9FB4FF" font-family="Inter, 'Segoe UI', system-ui, -apple-system, sans-serif" font-size="13" font-weight="600">|</text>
      <text x="42" y="78" fill="#E7ECFF" font-family="Inter, 'Segoe UI', system-ui, -apple-system, sans-serif" font-size="13" font-weight="700">type here</text>
    </g>
    <g transform="translate(504 0)">
      <rect width="220" height="120" rx="16" fill="#121A30" stroke="#2E3754" />
      <text x="18" y="32" fill="#9FB4FF" font-family="Inter, 'Segoe UI', system-ui, -apple-system, sans-serif" font-size="13" font-weight="600">Notification states</text>
      <rect x="18" y="52" width="184" height="24" rx="6" fill="#0F1C39" stroke="#264BA7" />
      <text x="32" y="69" fill="#CFE2FF" font-family="Inter, 'Segoe UI', system-ui, -apple-system, sans-serif" font-size="12" font-weight="700">New alert</text>
      <rect x="18" y="82" width="184" height="24" rx="6" fill="#132027" stroke="#1E3F3A" />
      <text x="32" y="99" fill="#B9EED8" font-family="Inter, 'Segoe UI', system-ui, -apple-system, sans-serif" font-size="12" font-weight="700">Success state</text>
    </g>
  </g>
</svg>
